# xmcd
#
# Track frame offsets: 
#        150
#        11202
#        21847
#        32869
#        42636
#        53725
#        63433
#        74872
#        87569
#        100160
#        110179
#        121948
#        131753
#        144831
#        155759
#        165546
#        177704
#        188921
#        199631
#        213231
#        222437
#        232086
#        242817
#        255646
#        268602
#        277938
#        290015
#
# Disc length: 4047 seconds
#
# Revision: 1
# Processed by: cddbd v1.5.2PL0 Copyright (c) Steve Scherf et al.
# Submitted via: ExactAudioCopy v1.1
#
DISCID=af0fcd1b
DTITLE=The Country Gentlemen - Cmplete Starday Recordings_CD1
DYEAR=2009
DGENRE=Bluegrass
TTITLE0=Backwoods Blues
TTITLE1=Backwoods Blues
TTITLE2=Dixie Lookaway
TTITLE3=It's The Blues
TTITLE4=High Lonesome
TTITLE5=Banjo Hop
TTITLE6=The Church Back Home
TTITLE7=Orange Blossom Fiddle
TTITLE8=Hey, Little Girl
TTITLE9=The Devil's Own
TTITLE10=Rollin' Stone
TTITLE11=Nine Pound Hammer
TTITLE12=I'll Never Marry
TTITLE13=Travelin' Dobro Blues
TTITLE14=Nobody's Business
TTITLE15=New Freedon Bell (Alt Take)
TTITLE16=New Freedom Bell
TTITLE17=The Hills And Home
TTITLE18=A Letter To Tom
TTITLE19=Darling Allalee
TTITLE20=Tomorrow's My Wedding Day
TTITLE21=Helen
TTITLE22=Blue Man
TTITLE23=Remembrance Of You
TTITLE24=Red Rockin' Chair
TTITLE25=If That's The Way You Feel
TTITLE26=I Know I've Lost You
EXTD=
EXTT0=
EXTT1=
EXTT2=
EXTT3=
EXTT4=
EXTT5=
EXTT6=
EXTT7=
EXTT8=
EXTT9=
EXTT10=
EXTT11=
EXTT12=
EXTT13=
EXTT14=
EXTT15=
EXTT16=
EXTT17=
EXTT18=
EXTT19=
EXTT20=
EXTT21=
EXTT22=
EXTT23=
EXTT24=
EXTT25=
EXTT26=
PLAYORDER=
